<?xml version="1.0"?>
<svg version="1.1" xmlns="http://www.w3.org/2000/svg" width="400" height="200" style=""><path fill="#" d="M61.26,121.87q3.51-1.71,5.76-5.67q2.25-3.78,2.25-8.1q0-7.74-5.22-12.51q-5.22-4.68-13.14-4.68l-25.29,0l-1.08,0l-4.59,0l0,63.09l4.59,0l1.08,0l25.29,0q7.92,0,13.14-4.68q5.22-4.77,5.22-12.51q0-4.23-2.205-8.235t-5.805-6.705z M25.62,95.5l25.29,0q5.4,0,8.91,3.69q3.78,3.96,3.78,8.91q0,4.05-2.97,7.47q-2.79,3.06-7.38,4.05l-2.34,0l-25.29,0l0-24.12z M50.91,149.41l-25.29,0l0-24.12l25.29,0l2.34,0q4.59,0.99,7.38,4.05q2.97,3.42,2.97,7.47q0,4.86-3.78,8.82q-3.6,3.78-8.91,3.78z M108.0456,91q-10.17,0-17.46,7.29q-7.38,7.38-7.38,17.55l0,13.59q0,9.99,7.38,17.37t17.46,7.38q10.17,0,17.55-7.38q7.29-7.29,7.29-17.37l0-13.59q0-10.26-7.29-17.55t-17.55-7.29z M127.3056,115.84l0,13.59q0,8.19-5.76,13.77q-5.67,5.4-13.5,5.4t-13.41-5.4q-5.76-5.58-5.76-13.77l0-13.59q0-7.56,5.76-13.5q5.76-5.76,13.41-5.76q7.56,0,13.5,5.76q5.76,5.94,5.76,13.5z M169.7712,90.64q-10.08,0-16.92,7.29q-6.75,7.2-6.75,17.55l0,38.52l5.67,0l0-28.26l36.18,0l0,28.26l5.67,0l0-38.52q0-10.35-6.75-17.55q-7.02-7.29-17.1-7.29z M187.9512,120.16l-36.18,0l0-4.68q0-7.74,5.22-13.41q5.31-5.76,12.78-5.76t12.96,5.76q5.22,5.67,5.22,13.41l0,4.68z M234.7368,122.41l6.75,0q6.84,0,11.34-4.5t4.5-11.34q0-6.03-4.5-10.8q-4.77-4.95-11.34-4.95l-28.17,0l-5.58,0l0,63.18l5.58,0l0-31.59l14.67,0l19.17,31.59l6.75,0z M213.3168,116.83l0-20.34l28.17,0q4.14,0,7.29,2.97q2.97,2.97,2.97,7.11q0,4.32-2.97,7.29q-3.15,2.97-7.29,2.97l-28.17,0z M290.2524,90.91l-13.77,0l-3.42,0l-2.25,0l0,63.09l2.25,0l3.42,0l13.77,0q13.14,0,22.5-9.18q9.63-9.45,9.63-22.95q0-12.78-9.63-21.96q-9.45-9-22.5-9z M290.2524,148.33l-13.77,0l0-51.57l13.77,0q11.25,0,18.9,7.38q7.56,7.38,7.56,17.73q0,11.25-7.56,18.81q-7.65,7.65-18.9,7.65z"/><path fill="#" d="M339.278,130.05l3.15,0l0-35.15l-3.15,0l0,35.15z M364.32,95q-5.65,0-9.7,4.05q-4.1,4.1-4.1,9.75l0,7.55q0,5.55,4.1,9.65t9.7,4.1q5.65,0,9.75-4.1q4.05-4.05,4.05-9.65l0-7.55q0-5.7-4.05-9.75t-9.75-4.05z M375.02,108.8l0,7.55q0,4.55-3.2,7.65q-3.15,3-7.5,3t-7.45-3q-3.2-3.1-3.2-7.65l0-7.55q0-4.2,3.2-7.5q3.2-3.2,7.45-3.2q4.2,0,7.5,3.2q3.2,3.3,3.2,7.5z"/></svg>
